<svg id="logo-blanco-svg" xmlns="http://www.w3.org/2000/svg" width="66.5" height="13.294" viewBox="0 0 66.5 13.294">
  <path id="Trazado_1" data-name="Trazado 1" d="M238.261-227.063a3.792,3.792,0,0,0-1.01-.617,3.566,3.566,0,0,0-1.122-.289,2.309,2.309,0,0,0,1.118-.5,2.375,2.375,0,0,0,.75-1.014,3.732,3.732,0,0,0,.232-1.355,2.739,2.739,0,0,0-1.134-2.425,5.23,5.23,0,0,0-3.018-.781h-9.717v12.888h10.214a6.918,6.918,0,0,0,2.574-.417,2.954,2.954,0,0,0,1.511-1.23,3.791,3.791,0,0,0,.477-1.952,3.815,3.815,0,0,0-.224-1.335A2.335,2.335,0,0,0,238.261-227.063ZM227.4-231.616h5.692a3.139,3.139,0,0,1,1.066.144,1.256,1.256,0,0,1,.613.481,1.312,1.312,0,0,1,.228.754,1.366,1.366,0,0,1-.389,1.07,1.94,1.94,0,0,1-1.3.349H227.4Zm8.25,7.458a1.46,1.46,0,0,1-.709.425,4.37,4.37,0,0,1-1.191.132H227.4v-2.821h6.414a2.9,2.9,0,0,1,1.58.341,1.193,1.193,0,0,1,.513,1.07A1.259,1.259,0,0,1,235.647-224.157Z" transform="translate(-206.25 234.247)" fill="#fff"/>
  <path id="Trazado_2" data-name="Trazado 2" d="M441.275-234.044l-4.53,9.818-4.434-9.818H428.3v12.888h2.95v-8.6l3.912,8.6h3.055l4.025-8.6v8.6h2.966v-12.888Z" transform="translate(-392.542 234.247)" fill="#fff"/>
  <path id="Trazado_3" data-name="Trazado 3" d="M29.6-230.832H22.127v2.433H26.95a3.514,3.514,0,0,1-.365,1.024,3.062,3.062,0,0,1-1.555,1.31,6.826,6.826,0,0,1-2.409.429h0a6.7,6.7,0,0,1-2.4-.43,3.032,3.032,0,0,1-1.559-1.294,4.845,4.845,0,0,1-.493-2.393,4.9,4.9,0,0,1,.489-2.4,3.062,3.062,0,0,1,1.555-1.31,6.823,6.823,0,0,1,2.409-.429h0a6.7,6.7,0,0,1,2.4.43,3.266,3.266,0,0,1,1.193.8h3.555a5.64,5.64,0,0,0-.3-.691,5.116,5.116,0,0,0-2.505-2.264,9.574,9.574,0,0,0-4.025-.793c-.107,0-.212,0-.317,0h0a10.654,10.654,0,0,0-3.969.741,5.824,5.824,0,0,0-2.714,2.184A6.722,6.722,0,0,0,15-229.753a7.605,7.605,0,0,0,.774,3.579,5.116,5.116,0,0,0,2.505,2.264,9.575,9.575,0,0,0,4.025.793c.107,0,.212,0,.317,0h0a10.655,10.655,0,0,0,3.969-.741,5.823,5.823,0,0,0,2.714-2.184,6.721,6.721,0,0,0,.938-3.731,10.229,10.229,0,0,0-.054-1.06Z" transform="translate(-15 236.409)" fill="#fff"/>
  <path id="Trazado_4" data-name="Trazado 4" d="M677.861-213.039h-4.577V-217.6h-.913v4.564h-4.577v.912h4.577v4.587h.913v-4.587h4.577Z" transform="translate(-611.361 219.218)" fill="#fff"/>
</svg>
