<?xml version="1.0" encoding="utf-8"?>
<!-- Generator: Adobe Illustrator 16.0.0, SVG Export Plug-In . SVG Version: 6.00 Build 0)  -->
<!DOCTYPE svg PUBLIC "-//W3C//DTD SVG 1.1//EN" "http://www.w3.org/Graphics/SVG/1.1/DTD/svg11.dtd">
<svg version="1.1" id="Layer_1" xmlns="http://www.w3.org/2000/svg" xmlns:xlink="http://www.w3.org/1999/xlink" x="0px" y="0px"
	 width="237.6px" height="48px" viewBox="0 0 237.6 48" enable-background="new 0 0 237.6 48" xml:space="preserve">
<path d="M54.559,20.15c0.129,1.27,0.192,2.549,0.192,3.83c0,5.51-1.124,10-3.371,13.469c-2.246,3.471-5.496,6.09-9.746,7.881
	C37.592,47.01,32.84,47.9,27.378,48h-1.141c-5.495,0-10.314-0.949-14.455-2.869c-4.149-1.9-7.149-4.631-9.004-8.17
	C0.926,33.42,0,29.109,0,24.039c0.007-5.52,1.13-10.01,3.37-13.479C5.609,7.1,8.857,4.471,13.117,2.68
	C17.158,0.98,21.912,0.09,27.378,0h1.134c5.495,0.01,10.312,0.971,14.453,2.869c4.141,1.9,7.143,4.621,9.007,8.16
	c0.418,0.801,0.78,1.641,1.087,2.49H40.288c-1.198-1.26-2.658-2.24-4.276-2.869c-2.755-1.041-5.678-1.57-8.624-1.561l-0.645,0.029
	c-3.192,0.141-5.865,0.631-8.011,1.531c-2.345,0.889-4.316,2.561-5.591,4.73c-1.17,2.09-1.754,4.969-1.754,8.658
	c0,3.682,0.587,6.561,1.76,8.631c1.278,2.16,3.255,3.811,5.602,4.68c2.757,1.051,5.682,1.58,8.628,1.561l0.646-0.02
	c3.19-0.15,5.859-0.641,8.009-1.541c2.345-0.889,4.315-2.561,5.586-4.73c0.624-1.158,1.066-2.398,1.308-3.689H25.603v-8.789h26.85
	L54.559,20.15z M221.155,22.141V5.789h-0.003h-3.276v16.352h-16.444v3.27h16.446V41.85h3.276V25.41H237.6v-3.27H221.155z
	 M117.132,30.08c0.552,1.561,0.826,3.199,0.806,4.85c0.068,2.48-0.522,4.92-1.71,7.09c-1.25,2.061-3.151,3.641-5.396,4.471
	c-2.473,1.01-5.548,1.51-9.227,1.51H64.99V1.199h34.833c4.509,0.021,8.116,0.971,10.826,2.861c2.71,1.889,4.065,4.83,4.065,8.809
	c0.023,1.682-0.258,3.342-0.831,4.92c-0.557,1.441-1.486,2.701-2.692,3.66c-1.147,0.961-2.533,1.59-4.008,1.811
	c1.388,0.131,2.748,0.48,4.024,1.051c1.313,0.549,2.534,1.309,3.615,2.24C115.877,27.51,116.671,28.73,117.132,30.08z M75.82,8.41
	l0.026,10.789h21.515c2.192,0,3.778-0.439,4.723-1.34c0.943-0.898,1.417-2.279,1.417-4.129c0.01-1.041-0.282-2.061-0.834-2.91
	c-0.541-0.85-1.325-1.5-2.235-1.85c-1.256-0.432-2.568-0.611-3.884-0.561H75.82z M105.899,34.199c0-1.859-0.6-3.219-1.812-4.09
	c-1.225-0.869-3.091-1.309-5.604-1.309H75.82V39.59h22.44c1.418,0.041,2.832-0.129,4.207-0.5c0.966-0.279,1.836-0.85,2.506-1.65
	C105.636,36.51,105.966,35.359,105.899,34.199z M157.864,36.381L141.936,0.73h-0.002h-14.399v46.799h10.596V16.301l14.054,31.229
	h10.974l14.459-31.229v31.229h10.656V0.73h-14.141L157.864,36.381z"/>
</svg>
